<?xml version="1.0" standalone="no"?>
<!DOCTYPE svg PUBLIC "-//W3C//DTD SVG 20010904//EN"
 "http://www.w3.org/TR/2001/REC-SVG-20010904/DTD/svg10.dtd">
<svg version="1.0" xmlns="http://www.w3.org/2000/svg"
 width="360.000000pt" height="360.000000pt" viewBox="0 0 360.000000 360.000000"
 preserveAspectRatio="xMidYMid meet">
<metadata>
Created by potrace 1.16, written by Peter Selinger 2001-2019
</metadata>
<g transform="translate(0.000000,360.000000) scale(0.100000,-0.100000)"
fill="#D90416" stroke="none">
<path d="M1480 2865 l0 -735 -740 0 -740 0 0 -325 0 -325 740 0 740 0 0 -740
0 -740 320 0 320 0 0 740 0 740 740 0 740 0 0 325 0 325 -740 0 -740 0 0 735
0 735 -320 0 -320 0 0 -735z"/>
<path d="M2614 3371 c-97 -65 -183 -159 -264 -287 -41 -65 -92 -140 -112 -166
l-38 -47 0 -161 0 -161 31 18 c69 39 244 227 328 350 97 142 180 231 277 293
38 24 71 46 74 47 11 9 -203 153 -228 153 -5 0 -36 -18 -68 -39z"/>
<path d="M809 3350 c-41 -27 -90 -62 -109 -78 l-34 -29 59 -73 c80 -98 178
-184 281 -248 117 -72 192 -130 301 -237 l93 -91 0 188 0 188 -58 58 c-33 31
-119 100 -192 152 -73 52 -163 123 -199 157 l-67 61 -75 -48z"/>
<path d="M2920 3149 c-117 -89 -189 -169 -288 -319 -110 -168 -231 -295 -354
-375 l-78 -50 0 -97 0 -97 110 -3 110 -3 69 52 c93 70 218 196 262 263 20 30
66 102 104 159 91 140 170 228 249 282 36 24 66 48 66 53 0 10 -170 186 -179
186 -3 -1 -35 -23 -71 -51z"/>
<path d="M497 3091 c-48 -49 -87 -92 -87 -96 0 -4 14 -31 30 -60 49 -85 153
-189 259 -259 53 -34 129 -84 168 -110 93 -61 200 -161 287 -270 l70 -86 88 0
88 0 0 106 0 107 -57 71 c-104 129 -195 209 -362 321 -167 110 -270 203 -347
310 -22 30 -42 54 -45 55 -3 0 -44 -40 -92 -89z"/>
<path d="M3183 2884 c-81 -55 -177 -165 -293 -334 -65 -96 -139 -189 -196
-247 l-90 -93 187 0 187 0 52 58 c28 31 83 104 123 162 39 58 109 144 155 192
55 57 81 91 76 100 -45 78 -129 198 -138 198 -6 -1 -35 -17 -63 -36z"/>
<path d="M327 2893 c-24 -28 -127 -195 -127 -208 0 -20 88 -138 152 -203 66
-69 107 -99 209 -155 36 -20 90 -55 120 -77 l53 -40 169 0 169 0 -17 28 c-72
113 -160 204 -256 263 -41 25 -116 72 -168 104 -117 73 -185 139 -240 233 -23
39 -43 72 -45 72 -2 0 -10 -8 -19 -17z"/>
<path d="M566 1350 c-25 -27 -84 -107 -130 -178 -60 -92 -105 -148 -160 -198
l-76 -70 76 -112 75 -112 62 43 c93 63 168 146 261 286 91 137 168 228 261
311 33 29 67 59 75 66 12 12 -17 14 -191 14 l-206 0 -47 -50z"/>
<path d="M1079 1322 c-123 -102 -206 -199 -322 -374 -91 -138 -201 -265 -290
-333 l-38 -30 89 -89 c68 -67 94 -87 108 -82 33 11 176 139 247 221 38 43 98
124 134 180 88 134 157 211 285 318 l108 90 0 89 0 88 -113 0 -114 0 -94 -78z"/>
<path d="M2200 1304 l0 -96 55 -71 c93 -121 213 -234 320 -304 143 -94 256
-187 362 -296 l93 -96 82 85 c46 47 85 89 86 94 6 18 -50 103 -107 164 -64 67
-152 136 -328 255 -131 89 -253 206 -319 305 l-37 56 -103 0 -104 0 0 -96z"/>
<path d="M2555 1373 c64 -100 139 -165 360 -314 147 -99 243 -186 315 -283
l43 -59 19 23 c11 13 44 66 75 117 l55 92 -45 58 c-77 99 -167 181 -277 251
-58 37 -129 84 -159 104 l-54 38 -175 0 -174 0 17 -27z"/>
<path d="M1330 1027 c-96 -79 -200 -195 -245 -273 -93 -160 -210 -287 -344
-374 l-53 -35 26 -21 c14 -12 66 -48 117 -79 l91 -57 53 37 c112 77 203 181
358 410 l67 100 -2 173 -3 173 -65 -54z"/>
<path d="M2200 849 l0 -192 56 -64 c40 -45 98 -91 202 -160 83 -55 172 -123
205 -157 l58 -60 32 19 c76 44 186 129 180 139 -3 6 -30 41 -60 78 -68 84
-157 157 -298 244 -112 70 -235 178 -326 287 l-49 58 0 -192z"/>
</g>
</svg>
