<svg version="1.1" id="Layer_1" xmlns="http://www.w3.org/2000/svg" xmlns:xlink="http://www.w3.org/1999/xlink" x="0px" y="0px"
	 width="100%" viewBox="0 0 4000 1080" enable-background="new 0 0 4000 1080" xml:space="preserve">
<path fill="#FFFFFF" opacity="1.000000" stroke="none" 
	d="
M4002.000000,530.000000 
	C4002.000000,648.708435 4002.000000,767.416931 4001.226807,887.290710 
	C3986.329834,884.592163 3972.205078,880.732849 3958.082764,876.863647 
	C3820.346191,839.127747 3682.219727,803.030334 3541.692139,776.906494 
	C3466.016357,762.838379 3389.955566,751.243591 3313.285156,744.569946 
	C3260.525635,739.977600 3207.595703,736.638855 3154.670654,734.816223 
	C3070.328613,731.911682 2985.988770,734.536194 2902.002197,742.709473 
	C2841.695068,748.578308 2781.411865,755.589661 2721.544189,764.847717 
	C2645.563965,776.597595 2569.728516,789.702393 2494.340820,804.775879 
	C2342.240234,835.187805 2190.529541,867.543274 2038.565430,898.644836 
	C1974.321777,911.793213 1909.957764,924.422607 1845.439941,936.140686 
	C1787.140503,946.729431 1728.630737,956.229553 1670.073853,965.306824 
	C1629.603760,971.580383 1588.973145,977.013550 1548.272949,981.556091 
	C1502.925415,986.617188 1457.485962,991.297546 1411.963501,994.241089 
	C1348.127319,998.368652 1284.208252,1001.925720 1220.269165,1003.579834 
	C1127.957642,1005.967773 1035.626099,1004.149048 943.379578,999.642944 
	C906.769714,997.854553 870.166504,995.728699 833.612976,993.040039 
	C789.423950,989.789673 745.268799,986.021912 701.140381,982.021240 
	C665.644775,978.803223 630.179077,975.190369 594.757751,971.236328 
	C551.728455,966.433105 508.739563,961.250122 465.770691,955.928772 
	C427.762634,951.221741 389.771515,946.348816 351.835266,941.098572 
	C303.020081,934.342590 254.251144,927.245667 205.491623,920.095642 
	C153.108994,912.414368 100.762299,904.488098 48.395569,896.698120 
	C34.654709,894.654053 20.897673,892.718689 7.705810,890.813904 
	C4.230369,894.484802 7.792026,900.497803 2.000000,902.000000 
	C2.000000,778.624878 2.000000,655.249756 2.937193,530.908752 
	C29.194115,529.398743 54.514366,528.877747 79.833466,528.305725 
	C136.806671,527.018616 193.781769,525.805237 250.751556,524.379944 
	C328.042053,522.446228 405.330200,520.410889 482.615601,518.283813 
	C524.588074,517.128662 566.559509,515.877563 608.519470,514.342590 
	C677.782898,511.808838 747.041199,509.120087 816.292847,506.282806 
	C859.571289,504.509674 902.839600,502.463593 946.101807,500.324402 
	C997.681274,497.774017 1049.258667,495.159027 1100.819824,492.267029 
	C1156.700684,489.132721 1212.565430,485.704376 1268.430664,482.298431 
	C1321.967896,479.034393 1375.496216,475.623810 1429.029785,472.298157 
	C1471.923706,469.633423 1514.817505,466.964233 1557.715088,464.360443 
	C1613.583374,460.969421 1669.451782,457.582275 1725.326660,454.303986 
	C1771.889526,451.572083 1818.451416,448.794525 1865.032471,446.404602 
	C1933.913086,442.870575 2002.798096,439.380066 2071.704346,436.403229 
	C2127.633545,433.987030 2183.586914,432.001251 2239.547363,430.467163 
	C2302.511719,428.741089 2365.490479,427.286072 2428.472900,426.512970 
	C2548.131104,425.044098 2667.784912,426.121826 2787.379150,430.306641 
	C2864.297852,432.998169 2941.175293,436.888763 3018.063477,440.418518 
	C3040.691650,441.457367 3063.301758,442.960388 3085.903564,444.494812 
	C3131.770020,447.608643 3177.630371,450.820831 3223.483398,454.126556 
	C3251.059082,456.114532 3278.627930,458.213989 3306.178711,460.517487 
	C3342.689453,463.570038 3379.184326,466.816071 3415.676758,470.081787 
	C3446.530762,472.842926 3477.381104,475.648682 3508.215576,478.619324 
	C3546.337891,482.292084 3584.445312,486.118774 3622.552490,489.947479 
	C3657.348389,493.443604 3692.142822,496.959900 3726.924072,500.598175 
	C3762.362549,504.305237 3797.786377,508.156769 3833.213379,511.973541 
	C3861.026367,514.969971 3888.830322,518.048645 3916.645996,521.019775 
	C3945.092285,524.058228 3973.548340,527.010193 4002.000000,530.000000 
z"/>
<path fill="#FFFFFF" opacity="1.000000" stroke="none" 
	d="
M4002.000000,130.000000 
	C4002.000000,249.375122 4002.000000,368.750244 4001.173340,488.967285 
	C3953.670654,484.678741 3907.005127,479.452759 3860.316650,474.441193 
	C3797.401611,467.687805 3734.480469,460.988129 3671.540283,454.474762 
	C3618.537598,448.989746 3565.526123,443.567352 3512.477783,438.548401 
	C3453.122070,432.932709 3393.742676,427.535431 3334.331787,422.541687 
	C3282.215820,418.161041 3230.059082,414.221680 3177.888184,410.544647 
	C3126.043945,406.890686 3074.177490,403.487671 3022.287842,400.560944 
	C2968.395752,397.521301 2914.484131,394.633972 2860.544678,392.678253 
	C2791.939697,390.190704 2723.306641,387.571106 2654.670410,387.061584 
	C2556.357910,386.331757 2458.030029,387.246887 2359.711914,387.893524 
	C2318.056641,388.167480 2276.406250,389.448700 2234.757812,390.452911 
	C2209.770752,391.055389 2184.782959,391.792084 2159.811035,392.842377 
	C2087.899170,395.866791 2015.992798,399.023315 1944.089600,402.248627 
	C1914.131470,403.592407 1884.180664,405.129456 1854.237671,406.778625 
	C1810.991577,409.160461 1767.755005,411.716736 1724.515259,414.213257 
	C1698.903198,415.691956 1673.289307,417.141937 1647.682251,418.705048 
	C1596.471802,421.831055 1545.266602,425.041473 1494.057251,428.185822 
	C1468.783691,429.737640 1443.501343,431.148682 1418.231079,432.750458 
	C1380.662354,435.131744 1343.106445,437.718994 1305.534546,440.045593 
	C1267.623535,442.393158 1229.699097,444.523315 1191.781250,446.760345 
	C1140.893311,449.762573 1090.013916,452.921265 1039.115479,455.733765 
	C1004.847717,457.627319 970.554626,459.066742 936.270508,460.659241 
	C871.032043,463.689575 805.800110,466.876556 740.549988,469.633453 
	C686.946289,471.898254 633.326599,473.831238 579.702515,475.556091 
	C509.755096,477.805908 439.799896,479.835571 369.841339,481.709747 
	C322.865265,482.968170 275.876801,483.758240 228.895401,484.823975 
	C200.240372,485.473969 171.589523,486.308441 142.934433,486.954956 
	C95.957306,488.014984 48.978245,488.989471 2.000000,490.000000 
	C2.000000,370.624878 2.000000,251.249756 2.764069,131.140396 
	C28.665743,135.343124 53.776649,140.421097 78.946693,145.186752 
	C126.670364,154.222702 174.377182,163.363037 222.186890,171.924530 
	C263.118561,179.254364 304.139679,186.114777 345.203033,192.670670 
	C387.250183,199.383636 429.334320,205.929733 471.517761,211.705276 
	C511.402313,217.166016 551.415955,221.712021 591.411682,226.323792 
	C626.449646,230.363876 661.505188,234.326019 696.619751,237.607391 
	C732.411499,240.952057 768.271790,243.601837 804.125732,246.233566 
	C848.947693,249.523575 893.769836,252.906189 938.636414,255.467789 
	C982.522644,257.973389 1026.453369,259.823822 1070.385620,261.365051 
	C1119.992798,263.105377 1169.617065,264.516693 1219.245483,265.452606 
	C1271.884033,266.445251 1324.536621,267.215698 1377.182373,267.180054 
	C1461.491455,267.122986 1545.800415,266.396271 1630.108276,265.788452 
	C1655.425171,265.605957 1680.738525,264.909912 1706.052490,264.393768 
	C1773.007080,263.028473 1839.961670,261.667572 1906.914795,260.230713 
	C1930.560913,259.723236 1954.203979,259.048950 1977.846069,258.366516 
	C2024.131958,257.030426 2070.418701,255.714035 2116.700439,254.239197 
	C2153.654541,253.061615 2190.603271,251.698975 2227.551514,250.348862 
	C2263.501465,249.035263 2299.449707,247.684662 2335.395020,246.254333 
	C2366.677979,245.009476 2397.957275,243.680939 2429.234375,242.299026 
	C2473.818604,240.329163 2518.398926,238.268494 2562.981689,236.262192 
	C2598.251709,234.674973 2633.523438,233.134720 2668.792480,231.525330 
	C2682.764404,230.887772 2696.732910,230.166962 2710.698486,229.402206 
	C2756.912598,226.871582 2803.125977,224.324814 2849.337158,221.741531 
	C2873.940186,220.366196 2898.542480,218.969513 2923.137695,217.464371 
	C2964.345215,214.942642 3005.547363,212.334518 3046.750732,209.746841 
	C3069.681152,208.306763 3092.614502,206.911285 3115.537354,205.359100 
	C3152.073486,202.885071 3188.603027,200.306030 3225.133789,197.753693 
	C3245.394043,196.338135 3265.656250,194.951874 3285.908936,193.436630 
	C3319.435059,190.928314 3352.954346,188.332916 3386.475586,185.761368 
	C3405.063965,184.335403 3423.655518,182.949036 3442.236084,181.428238 
	C3472.755615,178.930222 3503.267822,176.340973 3533.782715,173.783325 
	C3551.363770,172.309753 3568.949463,170.882706 3586.523438,169.328003 
	C3614.370605,166.864487 3642.209229,164.306473 3670.052490,161.798294 
	C3686.298340,160.334808 3702.552002,158.954269 3718.791260,157.422852 
	C3744.302734,155.017044 3769.799072,152.455093 3795.312500,150.071472 
	C3819.837402,147.780182 3844.382080,145.698441 3868.906494,143.401779 
	C3895.082031,140.950546 3921.250732,138.421402 3947.409912,135.800797 
	C3965.617676,133.976791 3983.803955,131.941132 4002.000000,130.000000 
z"/>
<path fill="#FFFFFF" opacity="1.000000" stroke="none" 
	d="
M2.000000,106.000000 
	C2.000000,71.340218 2.000000,36.680431 2.000000,2.092490 
	C1335.333374,2.092490 2668.666748,2.092490 4002.000000,2.092490 
	C4002.000000,30.846048 4002.000000,59.507114 4001.151855,89.300613 
	C3993.676025,90.999886 3987.044922,91.523575 3980.422119,92.141342 
	C3957.223877,94.305283 3934.024414,96.458267 3910.833252,98.696274 
	C3879.364746,101.733040 3847.911621,104.930313 3816.436523,107.896149 
	C3791.581299,110.238220 3766.695801,112.255920 3741.836670,114.558830 
	C3702.072510,118.242500 3662.333252,122.199837 3622.557373,125.747337 
	C3587.411133,128.881958 3552.225586,131.576126 3517.063232,134.534912 
	C3472.951172,138.246811 3428.854736,142.151413 3384.733154,145.744202 
	C3349.895264,148.581009 3315.036377,151.175156 3280.173828,153.692032 
	C3232.356934,157.144104 3184.530762,160.468185 3136.702393,163.756302 
	C3106.475830,165.834335 3076.241943,167.808655 3046.004150,169.718491 
	C3002.806641,172.446854 2959.606689,175.144180 2916.400146,177.721680 
	C2881.166992,179.823486 2845.924561,181.771347 2810.682129,183.712006 
	C2773.442627,185.762650 2736.200684,187.773972 2698.954834,189.710678 
	C2659.380371,191.768478 2619.803467,193.789917 2580.221436,195.696320 
	C2536.977295,197.779068 2493.729736,199.796677 2450.476807,201.687302 
	C2402.229004,203.796265 2353.975586,205.783539 2305.720459,207.723129 
	C2270.442139,209.141144 2235.159180,210.450577 2199.874756,211.709595 
	C2160.927246,213.099274 2121.978760,214.467728 2083.025391,215.678421 
	C2037.075806,217.106552 1991.123901,218.485123 1945.166992,219.649673 
	C1887.549438,221.109695 1829.927612,222.420105 1772.304199,223.623444 
	C1732.995850,224.444321 1693.683594,225.359634 1654.369629,225.560165 
	C1512.080688,226.286026 1369.787842,228.080658 1227.505981,224.728958 
	C1193.866577,223.936508 1160.219604,223.421173 1126.586548,222.428589 
	C1090.299683,221.357697 1054.013794,220.125549 1017.747803,218.506760 
	C978.496887,216.754745 939.259521,214.646194 900.035095,212.368866 
	C870.789368,210.670914 841.549500,208.756516 812.350037,206.404572 
	C765.572876,202.636734 718.802734,198.729172 672.083496,194.310989 
	C632.328369,190.551422 592.580750,186.541534 552.954163,181.637665 
	C505.739929,175.794785 458.572815,169.442307 411.540833,162.288132 
	C352.342712,153.283295 293.178314,143.939697 234.226578,133.463745 
	C169.049194,121.881454 104.130569,108.843727 39.094566,96.464493 
	C28.753111,94.496063 18.387045,92.656929 8.496264,90.843094 
	C6.050330,96.549881 4.025166,101.274940 2.000000,106.000000 
z"/>
<path fill="#FFFFFF" opacity="1.000000" stroke="none" 
	d="
M4002.000000,918.000000 
	C4002.000000,972.656128 4002.000000,1027.312256 4002.000000,1081.901855 
	C2668.666748,1081.901855 1335.333374,1081.901855 2.000000,1081.901855 
	C2.000000,1032.479614 2.000000,983.155701 2.723433,932.316040 
	C22.218218,933.541199 40.994362,936.249695 59.759972,939.029358 
	C106.857704,946.005737 153.936890,953.108826 201.049576,959.982239 
	C244.869690,966.375305 288.701996,972.692932 332.568542,978.757202 
	C375.117889,984.639465 417.684204,990.424255 460.304718,995.759460 
	C502.270355,1001.012756 544.288269,1005.876831 586.329407,1010.490906 
	C629.037659,1015.178223 671.759094,1019.841125 714.553894,1023.618896 
	C761.674438,1027.778564 808.843872,1031.643066 856.066406,1034.327148 
	C922.263184,1038.089966 988.500488,1041.758667 1054.771851,1043.438477 
	C1142.399048,1045.659668 1230.046021,1044.635620 1317.650879,1040.443726 
	C1383.903564,1037.273560 1450.070801,1032.870117 1515.937500,1025.345703 
	C1579.442261,1018.090942 1642.921875,1010.069458 1706.020630,999.942261 
	C1790.800415,986.335205 1875.479126,971.776062 1959.705933,955.120361 
	C2095.527588,928.261780 2230.951172,899.388428 2366.530762,871.309448 
	C2488.120605,846.127991 2609.829346,821.644104 2732.711914,803.380920 
	C2807.208008,792.309082 2881.904541,783.124634 2957.077881,778.518127 
	C3027.948975,774.175293 3098.878906,772.863403 3169.906494,775.441833 
	C3258.233887,778.648254 3346.014404,786.913086 3433.473389,799.546631 
	C3513.933350,811.169250 3593.595703,826.816833 3672.778320,844.995117 
	C3776.596191,868.829041 3879.293457,897.030029 3982.006348,925.149841 
	C3987.060547,926.533447 3992.172119,927.708435 3997.493164,929.039673 
	C3999.173828,924.922729 4000.586914,921.461365 4002.000000,918.000000 
z"/>
<path fill="#BC1919" opacity="1.000000" stroke="none" 
	d="
M4002.000000,917.067749 
	C4000.586914,921.461365 3999.173828,924.922729 3997.493164,929.039673 
	C3992.172119,927.708435 3987.060547,926.533447 3982.006348,925.149841 
	C3879.293457,897.030029 3776.596191,868.829041 3672.778320,844.995117 
	C3593.595703,826.816833 3513.933350,811.169250 3433.473389,799.546631 
	C3346.014404,786.913086 3258.233887,778.648254 3169.906494,775.441833 
	C3098.878906,772.863403 3027.948975,774.175293 2957.077881,778.518127 
	C2881.904541,783.124634 2807.208008,792.309082 2732.711914,803.380920 
	C2609.829346,821.644104 2488.120605,846.127991 2366.530762,871.309448 
	C2230.951172,899.388428 2095.527588,928.261780 1959.705933,955.120361 
	C1875.479126,971.776062 1790.800415,986.335205 1706.020630,999.942261 
	C1642.921875,1010.069458 1579.442261,1018.090942 1515.937500,1025.345703 
	C1450.070801,1032.870117 1383.903564,1037.273560 1317.650879,1040.443726 
	C1230.046021,1044.635620 1142.399048,1045.659668 1054.771851,1043.438477 
	C988.500488,1041.758667 922.263184,1038.089966 856.066406,1034.327148 
	C808.843872,1031.643066 761.674438,1027.778564 714.553894,1023.618896 
	C671.759094,1019.841125 629.037659,1015.178223 586.329407,1010.490906 
	C544.288269,1005.876831 502.270355,1001.012756 460.304718,995.759460 
	C417.684204,990.424255 375.117889,984.639465 332.568542,978.757202 
	C288.701996,972.692932 244.869690,966.375305 201.049576,959.982239 
	C153.936890,953.108826 106.857704,946.005737 59.759972,939.029358 
	C40.994362,936.249695 22.218218,933.541199 2.723433,931.400146 
	C2.000000,922.621521 2.000000,913.242981 2.000000,902.932251 
	C7.792026,900.497803 4.230369,894.484802 7.705810,890.813904 
	C20.897673,892.718689 34.654709,894.654053 48.395569,896.698120 
	C100.762299,904.488098 153.108994,912.414368 205.491623,920.095642 
	C254.251144,927.245667 303.020081,934.342590 351.835266,941.098572 
	C389.771515,946.348816 427.762634,951.221741 465.770691,955.928772 
	C508.739563,961.250122 551.728455,966.433105 594.757751,971.236328 
	C630.179077,975.190369 665.644775,978.803223 701.140381,982.021240 
	C745.268799,986.021912 789.423950,989.789673 833.612976,993.040039 
	C870.166504,995.728699 906.769714,997.854553 943.379578,999.642944 
	C1035.626099,1004.149048 1127.957642,1005.967773 1220.269165,1003.579834 
	C1284.208252,1001.925720 1348.127319,998.368652 1411.963501,994.241089 
	C1457.485962,991.297546 1502.925415,986.617188 1548.272949,981.556091 
	C1588.973145,977.013550 1629.603760,971.580383 1670.073853,965.306824 
	C1728.630737,956.229553 1787.140503,946.729431 1845.439941,936.140686 
	C1909.957764,924.422607 1974.321777,911.793213 2038.565430,898.644836 
	C2190.529541,867.543274 2342.240234,835.187805 2494.340820,804.775879 
	C2569.728516,789.702393 2645.563965,776.597595 2721.544189,764.847717 
	C2781.411865,755.589661 2841.695068,748.578308 2902.002197,742.709473 
	C2985.988770,734.536194 3070.328613,731.911682 3154.670654,734.816223 
	C3207.595703,736.638855 3260.525635,739.977600 3313.285156,744.569946 
	C3389.955566,751.243591 3466.016357,762.838379 3541.692139,776.906494 
	C3682.219727,803.030334 3820.346191,839.127747 3958.082764,876.863647 
	C3972.205078,880.732849 3986.329834,884.592163 4001.226807,888.228027 
	C4002.000000,897.378479 4002.000000,906.757019 4002.000000,917.067749 
z"/>
<path fill="#CB7676" opacity="1.000000" stroke="none" 
	d="
M2.000000,106.921272 
	C4.025166,101.274940 6.050330,96.549881 8.496264,90.843094 
	C18.387045,92.656929 28.753111,94.496063 39.094566,96.464493 
	C104.130569,108.843727 169.049194,121.881454 234.226578,133.463745 
	C293.178314,143.939697 352.342712,153.283295 411.540833,162.288132 
	C458.572815,169.442307 505.739929,175.794785 552.954163,181.637665 
	C592.580750,186.541534 632.328369,190.551422 672.083496,194.310989 
	C718.802734,198.729172 765.572876,202.636734 812.350037,206.404572 
	C841.549500,208.756516 870.789368,210.670914 900.035095,212.368866 
	C939.259521,214.646194 978.496887,216.754745 1017.747803,218.506760 
	C1054.013794,220.125549 1090.299683,221.357697 1126.586548,222.428589 
	C1160.219604,223.421173 1193.866577,223.936508 1227.505981,224.728958 
	C1369.787842,228.080658 1512.080688,226.286026 1654.369629,225.560165 
	C1693.683594,225.359634 1732.995850,224.444321 1772.304199,223.623444 
	C1829.927612,222.420105 1887.549438,221.109695 1945.166992,219.649673 
	C1991.123901,218.485123 2037.075806,217.106552 2083.025391,215.678421 
	C2121.978760,214.467728 2160.927246,213.099274 2199.874756,211.709595 
	C2235.159180,210.450577 2270.442139,209.141144 2305.720459,207.723129 
	C2353.975586,205.783539 2402.229004,203.796265 2450.476807,201.687302 
	C2493.729736,199.796677 2536.977295,197.779068 2580.221436,195.696320 
	C2619.803467,193.789917 2659.380371,191.768478 2698.954834,189.710678 
	C2736.200684,187.773972 2773.442627,185.762650 2810.682129,183.712006 
	C2845.924561,181.771347 2881.166992,179.823486 2916.400146,177.721680 
	C2959.606689,175.144180 3002.806641,172.446854 3046.004150,169.718491 
	C3076.241943,167.808655 3106.475830,165.834335 3136.702393,163.756302 
	C3184.530762,160.468185 3232.356934,157.144104 3280.173828,153.692032 
	C3315.036377,151.175156 3349.895264,148.581009 3384.733154,145.744202 
	C3428.854736,142.151413 3472.951172,138.246811 3517.063232,134.534912 
	C3552.225586,131.576126 3587.411133,128.881958 3622.557373,125.747337 
	C3662.333252,122.199837 3702.072510,118.242500 3741.836670,114.558830 
	C3766.695801,112.255920 3791.581299,110.238220 3816.436523,107.896149 
	C3847.911621,104.930313 3879.364746,101.733040 3910.833252,98.696274 
	C3934.024414,96.458267 3957.223877,94.305283 3980.422119,92.141342 
	C3987.044922,91.523575 3993.676025,90.999886 4001.151855,90.216522 
	C4002.000000,102.708794 4002.000000,115.417595 4002.000000,129.063202 
	C3983.803955,131.941132 3965.617676,133.976791 3947.409912,135.800797 
	C3921.250732,138.421402 3895.082031,140.950546 3868.906494,143.401779 
	C3844.382080,145.698441 3819.837402,147.780182 3795.312500,150.071472 
	C3769.799072,152.455093 3744.302734,155.017044 3718.791260,157.422852 
	C3702.552002,158.954269 3686.298340,160.334808 3670.052490,161.798294 
	C3642.209229,164.306473 3614.370605,166.864487 3586.523438,169.328003 
	C3568.949463,170.882706 3551.363770,172.309753 3533.782715,173.783325 
	C3503.267822,176.340973 3472.755615,178.930222 3442.236084,181.428238 
	C3423.655518,182.949036 3405.063965,184.335403 3386.475586,185.761368 
	C3352.954346,188.332916 3319.435059,190.928314 3285.908936,193.436630 
	C3265.656250,194.951874 3245.394043,196.338135 3225.133789,197.753693 
	C3188.603027,200.306030 3152.073486,202.885071 3115.537354,205.359100 
	C3092.614502,206.911285 3069.681152,208.306763 3046.750732,209.746841 
	C3005.547363,212.334518 2964.345215,214.942642 2923.137695,217.464371 
	C2898.542480,218.969513 2873.940186,220.366196 2849.337158,221.741531 
	C2803.125977,224.324814 2756.912598,226.871582 2710.698486,229.402206 
	C2696.732910,230.166962 2682.764404,230.887772 2668.792480,231.525330 
	C2633.523438,233.134720 2598.251709,234.674973 2562.981689,236.262192 
	C2518.398926,238.268494 2473.818604,240.329163 2429.234375,242.299026 
	C2397.957275,243.680939 2366.677979,245.009476 2335.395020,246.254333 
	C2299.449707,247.684662 2263.501465,249.035263 2227.551514,250.348862 
	C2190.603271,251.698975 2153.654541,253.061615 2116.700439,254.239197 
	C2070.418701,255.714035 2024.131958,257.030426 1977.846069,258.366516 
	C1954.203979,259.048950 1930.560913,259.723236 1906.914795,260.230713 
	C1839.961670,261.667572 1773.007080,263.028473 1706.052490,264.393768 
	C1680.738525,264.909912 1655.425171,265.605957 1630.108276,265.788452 
	C1545.800415,266.396271 1461.491455,267.122986 1377.182373,267.180054 
	C1324.536621,267.215698 1271.884033,266.445251 1219.245483,265.452606 
	C1169.617065,264.516693 1119.992798,263.105377 1070.385620,261.365051 
	C1026.453369,259.823822 982.522644,257.973389 938.636414,255.467789 
	C893.769836,252.906189 848.947693,249.523575 804.125732,246.233566 
	C768.271790,243.601837 732.411499,240.952057 696.619751,237.607391 
	C661.505188,234.326019 626.449646,230.363876 591.411682,226.323792 
	C551.415955,221.712021 511.402313,217.166016 471.517761,211.705276 
	C429.334320,205.929733 387.250183,199.383636 345.203033,192.670670 
	C304.139679,186.114777 263.118561,179.254364 222.186890,171.924530 
	C174.377182,163.363037 126.670364,154.222702 78.946693,145.186752 
	C53.776649,140.421097 28.665743,135.343124 2.764069,130.203079 
	C2.000000,122.614182 2.000000,115.228363 2.000000,106.921272 
z"/>
<path fill="#C45656" opacity="1.000000" stroke="none" 
	d="
M2.000000,490.936829 
	C48.978245,488.989471 95.957306,488.014984 142.934433,486.954956 
	C171.589523,486.308441 200.240372,485.473969 228.895401,484.823975 
	C275.876801,483.758240 322.865265,482.968170 369.841339,481.709747 
	C439.799896,479.835571 509.755096,477.805908 579.702515,475.556091 
	C633.326599,473.831238 686.946289,471.898254 740.549988,469.633453 
	C805.800110,466.876556 871.032043,463.689575 936.270508,460.659241 
	C970.554626,459.066742 1004.847717,457.627319 1039.115479,455.733765 
	C1090.013916,452.921265 1140.893311,449.762573 1191.781250,446.760345 
	C1229.699097,444.523315 1267.623535,442.393158 1305.534546,440.045593 
	C1343.106445,437.718994 1380.662354,435.131744 1418.231079,432.750458 
	C1443.501343,431.148682 1468.783691,429.737640 1494.057251,428.185822 
	C1545.266602,425.041473 1596.471802,421.831055 1647.682251,418.705048 
	C1673.289307,417.141937 1698.903198,415.691956 1724.515259,414.213257 
	C1767.755005,411.716736 1810.991577,409.160461 1854.237671,406.778625 
	C1884.180664,405.129456 1914.131470,403.592407 1944.089600,402.248627 
	C2015.992798,399.023315 2087.899170,395.866791 2159.811035,392.842377 
	C2184.782959,391.792084 2209.770752,391.055389 2234.757812,390.452911 
	C2276.406250,389.448700 2318.056641,388.167480 2359.711914,387.893524 
	C2458.030029,387.246887 2556.357910,386.331757 2654.670410,387.061584 
	C2723.306641,387.571106 2791.939697,390.190704 2860.544678,392.678253 
	C2914.484131,394.633972 2968.395752,397.521301 3022.287842,400.560944 
	C3074.177490,403.487671 3126.043945,406.890686 3177.888184,410.544647 
	C3230.059082,414.221680 3282.215820,418.161041 3334.331787,422.541687 
	C3393.742676,427.535431 3453.122070,432.932709 3512.477783,438.548401 
	C3565.526123,443.567352 3618.537598,448.989746 3671.540283,454.474762 
	C3734.480469,460.988129 3797.401611,467.687805 3860.316650,474.441193 
	C3907.005127,479.452759 3953.670654,484.678741 4001.173340,489.904602 
	C4002.000000,502.708801 4002.000000,515.417603 4002.000000,529.063232 
	C3973.548340,527.010193 3945.092285,524.058228 3916.645996,521.019775 
	C3888.830322,518.048645 3861.026367,514.969971 3833.213379,511.973541 
	C3797.786377,508.156769 3762.362549,504.305237 3726.924072,500.598175 
	C3692.142822,496.959900 3657.348389,493.443604 3622.552490,489.947479 
	C3584.445312,486.118774 3546.337891,482.292084 3508.215576,478.619324 
	C3477.381104,475.648682 3446.530762,472.842926 3415.676758,470.081787 
	C3379.184326,466.816071 3342.689453,463.570038 3306.178711,460.517487 
	C3278.627930,458.213989 3251.059082,456.114532 3223.483398,454.126556 
	C3177.630371,450.820831 3131.770020,447.608643 3085.903564,444.494812 
	C3063.301758,442.960388 3040.691650,441.457367 3018.063477,440.418518 
	C2941.175293,436.888763 2864.297852,432.998169 2787.379150,430.306641 
	C2667.784912,426.121826 2548.131104,425.044098 2428.472900,426.512970 
	C2365.490479,427.286072 2302.511719,428.741089 2239.547363,430.467163 
	C2183.586914,432.001251 2127.633545,433.987030 2071.704346,436.403229 
	C2002.798096,439.380066 1933.913086,442.870575 1865.032471,446.404602 
	C1818.451416,448.794525 1771.889526,451.572083 1725.326660,454.303986 
	C1669.451782,457.582275 1613.583374,460.969421 1557.715088,464.360443 
	C1514.817505,466.964233 1471.923706,469.633423 1429.029785,472.298157 
	C1375.496216,475.623810 1321.967896,479.034393 1268.430664,482.298431 
	C1212.565430,485.704376 1156.700684,489.132721 1100.819824,492.267029 
	C1049.258667,495.159027 997.681274,497.774017 946.101807,500.324402 
	C902.839600,502.463593 859.571289,504.509674 816.292847,506.282806 
	C747.041199,509.120087 677.782898,511.808838 608.519470,514.342590 
	C566.559509,515.877563 524.588074,517.128662 482.615601,518.283813 
	C405.330200,520.410889 328.042053,522.446228 250.751556,524.379944 
	C193.781769,525.805237 136.806671,527.018616 79.833466,528.305725 
	C54.514366,528.877747 29.194115,529.398743 2.937193,529.971436 
	C2.000000,517.291199 2.000000,504.582428 2.000000,490.936829 
z"/>
</svg>