<svg version="1.1" id="Layer_1" xmlns="http://www.w3.org/2000/svg" xmlns:xlink="http://www.w3.org/1999/xlink" x="0px" y="0px"
	 width="100%" viewBox="0 0 4000 418" enable-background="new 0 0 4000 418" xml:space="preserve">
<path fill="#1d1d1d" opacity="1.000000" stroke="none" 
	d="
M1.000000,279.000000 
	C1.000000,189.979111 1.000000,100.958206 1.468662,11.468820 
	C66.263565,10.327771 130.589539,9.629867 194.916092,8.987177 
	C437.228333,6.566221 679.542236,4.600995 921.861267,8.004603 
	C984.349243,8.882308 1046.841553,9.832462 1109.311768,11.503226 
	C1172.276855,13.187226 1235.227417,15.550273 1298.164062,18.114195 
	C1337.450195,19.714638 1376.715088,21.974495 1415.959473,24.420010 
	C1456.694336,26.958393 1497.402100,29.952871 1538.104492,32.980274 
	C1572.989502,35.574986 1607.868286,38.290295 1642.716675,41.332115 
	C1680.380737,44.619728 1718.004517,48.367680 1755.649292,51.878948 
	C1800.092285,56.024330 1844.534790,60.175388 1888.984985,64.242271 
	C1931.944824,68.172813 1974.892090,72.265823 2017.885010,75.799301 
	C2063.871826,79.578850 2109.874756,83.289749 2155.926270,86.121712 
	C2216.457520,89.844101 2277.014648,93.445099 2337.612305,95.717377 
	C2431.216553,99.227325 2524.881592,100.240097 2618.544922,98.214577 
	C2688.184326,96.708572 2757.824463,95.011749 2827.440674,92.694138 
	C2878.729980,90.986641 2929.987549,88.262634 2981.247559,85.755165 
	C3013.864990,84.159660 3046.464844,82.194702 3079.065918,80.280678 
	C3114.159912,78.220276 3149.248779,76.064323 3184.335205,73.877579 
	C3211.938232,72.157234 3239.540771,70.416473 3267.132568,68.522850 
	C3302.367676,66.104660 3337.592041,63.532578 3372.819824,61.009884 
	C3402.231445,58.903709 3431.647705,56.859940 3461.050049,54.631405 
	C3497.925537,51.836487 3534.789307,48.880356 3571.657959,45.995365 
	C3602.880127,43.552258 3634.106689,41.167545 3665.322998,38.655361 
	C3704.342285,35.515282 3743.353271,32.272263 3782.367676,29.071556 
	C3816.567139,26.265886 3850.767578,23.473276 3884.965576,20.645655 
	C3923.645020,17.447456 3962.322021,14.216642 4001.000000,11.000001 
	C4001.000000,100.020897 4001.000000,189.041794 4000.579102,278.555237 
	C3977.395020,282.004730 3954.641113,285.035919 3931.866211,287.898865 
	C3906.286621,291.114349 3880.680664,294.119507 3855.099609,297.322449 
	C3824.733887,301.124451 3794.395752,305.147858 3764.021240,308.876160 
	C3732.157715,312.787292 3700.265625,316.467773 3668.384766,320.239105 
	C3640.964844,323.482788 3613.554688,326.815430 3586.118896,329.919769 
	C3557.687744,333.136688 3529.235107,336.163361 3500.784668,339.205719 
	C3467.206543,342.796356 3433.635254,346.464142 3400.033447,349.819672 
	C3370.067871,352.812103 3340.071533,355.507446 3310.075439,358.182861 
	C3276.597656,361.168732 3243.117432,364.142883 3209.614502,366.824738 
	C3181.910400,369.042389 3154.185059,371.041992 3126.445312,372.753326 
	C3085.240479,375.295380 3044.023438,377.680237 3002.793701,379.778625 
	C2976.685059,381.107422 2950.549316,381.993073 2924.415527,382.717316 
	C2892.445068,383.603271 2860.466797,384.464752 2828.487305,384.689392 
	C2793.668457,384.934052 2758.842041,384.649536 2724.023926,384.196625 
	C2694.879883,383.817505 2665.729248,383.221741 2636.607666,382.066284 
	C2605.506592,380.832245 2574.408203,379.230377 2543.359863,377.058380 
	C2506.679443,374.492401 2470.019775,371.502045 2433.414062,368.030945 
	C2398.806396,364.749329 2364.214844,361.117065 2329.734131,356.715332 
	C2284.866211,350.987579 2240.049805,344.776642 2195.329834,337.989197 
	C2142.884277,330.029144 2090.514648,321.533661 2038.206299,312.711334 
	C1972.944092,301.704193 1907.818848,289.884705 1842.559692,278.859283 
	C1767.955322,266.255005 1693.366455,253.501358 1618.585327,242.021118 
	C1563.858887,233.619659 1508.891602,226.685715 1453.920532,220.014069 
	C1414.789795,215.264923 1375.507080,211.658646 1336.230225,208.258865 
	C1306.222534,205.661407 1276.138306,203.749023 1246.050659,202.321930 
	C1207.793213,200.507294 1169.505371,198.669647 1131.217163,198.321564 
	C1073.406494,197.796005 1015.582214,198.319382 957.767944,198.851334 
	C926.292053,199.140930 894.821960,200.272827 863.354919,201.212936 
	C847.877747,201.675354 832.406555,202.440643 816.944641,203.287933 
	C783.536011,205.118683 750.133362,207.059525 716.731873,209.017883 
	C699.283325,210.040909 681.830750,211.035797 664.401062,212.328735 
	C636.023682,214.433823 607.661865,216.750854 579.296936,219.021088 
	C561.879150,220.415146 544.459167,221.792068 527.055725,223.350021 
	C503.359467,225.471268 479.679108,227.769470 455.989929,229.969925 
	C436.771637,231.755081 417.536407,233.369949 398.333740,235.308334 
	C371.024445,238.065018 343.737061,241.039459 316.442200,243.938751 
	C293.613403,246.363647 270.782928,248.774017 247.961182,251.263962 
	C221.834152,254.114517 195.716232,257.048340 169.593826,259.941345 
	C144.462601,262.724609 119.324852,265.450470 94.200554,268.294983 
	C63.128002,271.812988 32.066360,275.427307 1.000000,279.000000 
z"/>
<path fill="#bf1616" opacity="1.000000" stroke="none" 
	d="
M1.000000,279.468658 
	C32.066360,275.427307 63.128002,271.812988 94.200554,268.294983 
	C119.324852,265.450470 144.462601,262.724609 169.593826,259.941345 
	C195.716232,257.048340 221.834152,254.114517 247.961182,251.263962 
	C270.782928,248.774017 293.613403,246.363647 316.442200,243.938751 
	C343.737061,241.039459 371.024445,238.065018 398.333740,235.308334 
	C417.536407,233.369949 436.771637,231.755081 455.989929,229.969925 
	C479.679108,227.769470 503.359467,225.471268 527.055725,223.350021 
	C544.459167,221.792068 561.879150,220.415146 579.296936,219.021088 
	C607.661865,216.750854 636.023682,214.433823 664.401062,212.328735 
	C681.830750,211.035797 699.283325,210.040909 716.731873,209.017883 
	C750.133362,207.059525 783.536011,205.118683 816.944641,203.287933 
	C832.406555,202.440643 847.877747,201.675354 863.354919,201.212936 
	C894.821960,200.272827 926.292053,199.140930 957.767944,198.851334 
	C1015.582214,198.319382 1073.406494,197.796005 1131.217163,198.321564 
	C1169.505371,198.669647 1207.793213,200.507294 1246.050659,202.321930 
	C1276.138306,203.749023 1306.222534,205.661407 1336.230225,208.258865 
	C1375.507080,211.658646 1414.789795,215.264923 1453.920532,220.014069 
	C1508.891602,226.685715 1563.858887,233.619659 1618.585327,242.021118 
	C1693.366455,253.501358 1767.955322,266.255005 1842.559692,278.859283 
	C1907.818848,289.884705 1972.944092,301.704193 2038.206299,312.711334 
	C2090.514648,321.533661 2142.884277,330.029144 2195.329834,337.989197 
	C2240.049805,344.776642 2284.866211,350.987579 2329.734131,356.715332 
	C2364.214844,361.117065 2398.806396,364.749329 2433.414062,368.030945 
	C2470.019775,371.502045 2506.679443,374.492401 2543.359863,377.058380 
	C2574.408203,379.230377 2605.506592,380.832245 2636.607666,382.066284 
	C2665.729248,383.221741 2694.879883,383.817505 2724.023926,384.196625 
	C2758.842041,384.649536 2793.668457,384.934052 2828.487305,384.689392 
	C2860.466797,384.464752 2892.445068,383.603271 2924.415527,382.717316 
	C2950.549316,381.993073 2976.685059,381.107422 3002.793701,379.778625 
	C3044.023438,377.680237 3085.240479,375.295380 3126.445312,372.753326 
	C3154.185059,371.041992 3181.910400,369.042389 3209.614502,366.824738 
	C3243.117432,364.142883 3276.597656,361.168732 3310.075439,358.182861 
	C3340.071533,355.507446 3370.067871,352.812103 3400.033447,349.819672 
	C3433.635254,346.464142 3467.206543,342.796356 3500.784668,339.205719 
	C3529.235107,336.163361 3557.687744,333.136688 3586.118896,329.919769 
	C3613.554688,326.815430 3640.964844,323.482788 3668.384766,320.239105 
	C3700.265625,316.467773 3732.157715,312.787292 3764.021240,308.876160 
	C3794.395752,305.147858 3824.733887,301.124451 3855.099609,297.322449 
	C3880.680664,294.119507 3906.286621,291.114349 3931.866211,287.898865 
	C3954.641113,285.035919 3977.395020,282.004730 4000.579102,279.023895 
	C4001.000000,325.661896 4001.000000,372.323792 4001.000000,418.961609 
	C2667.666748,418.961609 1334.333374,418.961609 1.000000,418.961609 
	C1.000000,372.594604 1.000000,326.265961 1.000000,279.468658 
z"/>
</svg>