<svg version="1.1" id="Layer_1" xmlns="http://www.w3.org/2000/svg" xmlns:xlink="http://www.w3.org/1999/xlink" x="0px" y="0px"
	 width="100%" viewBox="0 0 4000 309" enable-background="new 0 0 4000 309" xml:space="preserve">
<path fill="#BF1616" opacity="1.000000" stroke="none" 
	d="
M4001.000000,59.000000 
	C4001.000000,142.659012 4001.000000,226.318008 4001.000000,309.944641 
	C2667.666748,309.944641 1334.333374,309.944641 1.000000,309.944641 
	C1.000000,226.563477 1.000000,143.237686 1.373531,59.529320 
	C57.747425,74.921928 113.700882,90.865944 169.757217,106.439705 
	C320.033356,148.189941 470.721405,188.348419 623.170776,221.524155 
	C720.741760,242.757355 818.761963,261.769806 917.759827,274.979706 
	C980.953125,283.411987 1044.334351,290.843079 1107.831177,296.466522 
	C1159.239014,301.019348 1210.917358,303.144775 1262.525269,304.677551 
	C1354.717041,307.415619 1446.828857,304.549316 1538.587646,294.992950 
	C1596.196167,288.993195 1653.698730,281.787567 1711.096558,274.000183 
	C1784.161133,264.087250 1856.613037,250.378418 1928.843262,235.661301 
	C2037.707520,213.479950 2145.955322,188.517136 2253.996826,162.629761 
	C2383.527832,131.593384 2512.866943,99.714752 2643.267334,72.424377 
	C2724.062012,55.515671 2805.147949,40.261822 2886.919922,28.792439 
	C2948.127197,20.207489 3009.518311,13.174648 3071.190918,9.317680 
	C3123.724854,6.032256 3176.358643,4.352547 3228.946533,1.921354 
	C3230.308838,1.858365 3231.649414,1.317831 3233.000000,1.000002 
	C3241.029297,1.000000 3249.058838,1.000000 3257.829102,1.311004 
	C3275.745850,1.685781 3292.921387,1.749555 3310.558105,1.839296 
	C3320.674072,1.936883 3330.329346,2.051210 3339.984619,2.030825 
	C3341.323730,2.027998 3342.661621,1.360049 3344.000000,1.000004 
	C3347.031982,1.000000 3350.063721,1.000000 3353.758789,1.380831 
	C3419.807861,4.842841 3485.214600,7.549090 3550.571533,11.157602 
	C3585.148926,13.066707 3619.666992,16.248081 3654.162354,19.399523 
	C3688.649170,22.550251 3723.094238,26.195471 3757.520752,29.960745 
	C3796.410156,34.214127 3835.275879,38.700333 3874.120361,43.346832 
	C3916.432373,48.408070 3958.708252,53.769447 4001.000000,59.000000 
z"/>
</svg>