<svg version="1.1" id="Layer_1" xmlns="http://www.w3.org/2000/svg" xmlns:xlink="http://www.w3.org/1999/xlink" x="0px" y="0px"
	 width="100%" viewBox="0 0 4000 627" enable-background="new 0 0 4000 627" xml:space="preserve">
<path fill="#40403F" opacity="1.000000" stroke="none" 
	d="
M4001.000000,24.000000 
	C4001.000000,201.024902 4001.000000,378.049805 4000.534668,555.476990 
	C3957.920410,557.035095 3915.770508,558.145752 3873.623047,559.356750 
	C3797.831055,561.534302 3722.042236,563.820190 3646.249268,565.968567 
	C3592.444336,567.493774 3538.634033,568.835205 3484.827881,570.316284 
	C3405.701416,572.494263 3326.577637,574.786804 3247.449707,576.912170 
	C3177.483398,578.791565 3107.514404,580.564575 3037.543945,582.285156 
	C2931.587891,584.890625 2825.631592,587.507141 2719.671387,589.931946 
	C2648.697266,591.556152 2577.717285,592.964966 2506.736572,594.276123 
	C2400.764404,596.233704 2294.792480,598.231750 2188.814453,599.813293 
	C2103.664062,601.084106 2018.506714,602.318787 1933.349487,602.584106 
	C1771.361572,603.088867 1609.368408,603.530518 1447.383423,602.763062 
	C1334.067749,602.226196 1220.760132,599.752258 1107.452637,597.910278 
	C1058.965210,597.122070 1010.481445,595.951660 962.006653,594.579834 
	C890.712463,592.562317 819.426025,590.263855 748.139709,587.977600 
	C705.834717,586.620911 663.531372,585.188904 621.236389,583.554199 
	C567.953369,581.494751 514.678650,579.220459 461.402405,576.988525 
	C420.113922,575.258789 378.825928,573.513245 337.542725,571.662903 
	C289.269226,569.499268 240.999512,567.249695 192.731293,564.970825 
	C154.283661,563.155579 115.842712,561.198547 77.395027,559.384399 
	C51.933468,558.183105 26.465240,557.123169 1.000000,556.000000 
	C1.000000,378.975098 1.000000,201.950180 1.436769,24.460541 
	C6.337066,24.443520 10.810448,24.810411 15.262397,25.353125 
	C33.234623,27.544029 51.200848,29.784285 69.168121,32.015659 
	C86.312881,34.144886 103.456902,36.280163 120.599945,38.423153 
	C135.434311,40.277534 150.265671,42.155758 165.100479,44.006577 
	C182.902344,46.227570 200.706528,48.430008 218.509552,50.641731 
	C235.490250,52.751293 252.467712,54.887062 269.452118,56.966255 
	C287.753143,59.206631 306.063904,61.367702 324.364288,63.613438 
	C341.347931,65.697594 358.318573,67.887794 375.303955,69.957306 
	C391.461395,71.925934 407.631409,73.791473 423.794250,75.715996 
	C438.476196,77.464188 453.154236,79.244926 467.837067,80.985634 
	C486.147125,83.156372 504.463776,85.271461 522.770996,87.465706 
	C537.780029,89.264656 552.775696,91.174591 567.783997,92.979889 
	C583.615356,94.884201 599.455139,96.718933 615.290344,98.591225 
	C630.467407,100.385712 645.640930,102.210197 660.820496,103.983360 
	C676.988281,105.871956 693.159607,107.730591 709.332520,109.575020 
	C725.341125,111.400696 741.351196,113.214485 757.365112,114.992714 
	C773.709106,116.807594 790.061096,118.550400 806.405029,120.366051 
	C823.077881,122.218254 839.743042,124.140541 856.415588,125.995476 
	C872.759766,127.813873 889.109558,129.582214 905.456055,131.379669 
	C922.461060,133.249496 939.461182,135.164444 956.470764,136.991043 
	C970.345032,138.480942 984.233215,139.840408 998.109619,141.310608 
	C1015.781738,143.182968 1033.441895,145.168640 1051.119019,146.992615 
	C1065.660156,148.493027 1080.223755,149.776108 1094.767700,151.250748 
	C1113.109741,153.110474 1131.434326,155.144928 1149.780640,156.959946 
	C1168.295532,158.791672 1186.834839,160.376389 1205.350708,162.199738 
	C1224.028320,164.039001 1242.678467,166.161453 1261.362305,167.930984 
	C1277.900879,169.497345 1294.477661,170.656418 1311.022583,172.161819 
	C1335.007568,174.344162 1358.970459,176.768738 1382.958252,178.918625 
	C1406.452759,181.024277 1429.962036,182.970139 1453.473022,184.885773 
	C1478.973389,186.963531 1504.481445,188.950073 1529.989746,190.930359 
	C1551.854370,192.627792 1573.720825,194.304321 1595.592407,195.909470 
	C1619.123657,197.636414 1642.658813,199.312912 1666.197754,200.930267 
	C1686.423340,202.319916 1706.653320,203.648026 1726.887329,204.907043 
	C1749.447388,206.310806 1772.012207,207.639923 1794.578613,208.937454 
	C1812.832764,209.987045 1831.089478,210.999496 1849.350342,211.923126 
	C1870.438354,212.989777 1891.530151,213.984192 1912.623901,214.930740 
	C1936.046753,215.981766 1959.472046,216.982086 1982.899170,217.931412 
	C2000.847290,218.658691 2018.797607,219.350662 2036.751343,219.917374 
	C2060.366699,220.662750 2083.985107,221.328232 2107.604980,221.917084 
	C2124.911377,222.348572 2142.221436,222.638336 2159.531250,222.924637 
	C2181.839600,223.293640 2204.149658,223.890900 2226.458252,223.862244 
	C2265.766113,223.811737 2305.073975,223.421463 2344.380859,223.058304 
	C2371.689697,222.806000 2398.999756,222.497803 2426.303955,221.958145 
	C2447.593018,221.537369 2468.877197,220.801849 2490.158447,220.061264 
	C2516.753174,219.135757 2543.343262,218.070679 2569.934814,217.048721 
	C2587.884033,216.358902 2605.833008,215.664719 2623.780273,214.920288 
	C2630.590332,214.637787 2637.397217,214.252182 2644.200928,213.838913 
	C2664.934814,212.579483 2685.666992,211.290512 2706.398682,209.999405 
	C2717.678955,209.296906 2728.962158,208.635910 2740.235352,207.832916 
	C2757.468994,206.605377 2774.696533,205.291351 2791.923828,203.975983 
	C2805.509277,202.938675 2819.099121,201.945023 2832.671143,200.749191 
	C2849.381592,199.276794 2866.071533,197.576752 2882.776855,196.045547 
	C2898.658691,194.589783 2914.563477,193.369324 2930.431885,191.784378 
	C2951.585693,189.671509 2972.712402,187.287537 2993.854248,185.054794 
	C3013.677734,182.961288 3033.525879,181.084549 3053.327148,178.800735 
	C3077.088135,176.060257 3100.815430,173.022354 3124.549561,170.053146 
	C3148.946533,167.001007 3173.357178,164.045731 3197.720215,160.740158 
	C3227.519287,156.697021 3257.288574,152.429428 3287.045410,148.084442 
	C3323.715332,142.730026 3360.383301,137.353485 3397.006592,131.692398 
	C3429.859619,126.614105 3462.678467,121.300575 3495.462891,115.795860 
	C3538.255859,108.610649 3581.036377,101.339012 3623.755859,93.732071 
	C3676.470947,84.345360 3729.140625,74.700607 3781.787354,64.937279 
	C3836.402832,54.808876 3890.962402,44.379841 3945.556885,34.136688 
	C3964.021973,30.672260 3982.518066,27.374121 4001.000000,24.000000 
z"/>
<path fill="#1D1D1B" opacity="1.000000" stroke="none" 
	d="
M4001.000000,23.531265 
	C3982.518066,27.374121 3964.021973,30.672260 3945.556885,34.136688 
	C3890.962402,44.379841 3836.402832,54.808876 3781.787354,64.937279 
	C3729.140625,74.700607 3676.470947,84.345360 3623.755859,93.732071 
	C3581.036377,101.339012 3538.255859,108.610649 3495.462891,115.795860 
	C3462.678467,121.300575 3429.859619,126.614105 3397.006592,131.692398 
	C3360.383301,137.353485 3323.715332,142.730026 3287.045410,148.084442 
	C3257.288574,152.429428 3227.519287,156.697021 3197.720215,160.740158 
	C3173.357178,164.045731 3148.946533,167.001007 3124.549561,170.053146 
	C3100.815430,173.022354 3077.088135,176.060257 3053.327148,178.800735 
	C3033.525879,181.084549 3013.677734,182.961288 2993.854248,185.054794 
	C2972.712402,187.287537 2951.585693,189.671509 2930.431885,191.784378 
	C2914.563477,193.369324 2898.658691,194.589783 2882.776855,196.045547 
	C2866.071533,197.576752 2849.381592,199.276794 2832.671143,200.749191 
	C2819.099121,201.945023 2805.509277,202.938675 2791.923828,203.975983 
	C2774.696533,205.291351 2757.468994,206.605377 2740.235352,207.832916 
	C2728.962158,208.635910 2717.678955,209.296906 2706.398682,209.999405 
	C2685.666992,211.290512 2664.934814,212.579483 2644.200928,213.838913 
	C2637.397217,214.252182 2630.590332,214.637787 2623.780273,214.920288 
	C2605.833008,215.664719 2587.884033,216.358902 2569.934814,217.048721 
	C2543.343262,218.070679 2516.753174,219.135757 2490.158447,220.061264 
	C2468.877197,220.801849 2447.593018,221.537369 2426.303955,221.958145 
	C2398.999756,222.497803 2371.689697,222.806000 2344.380859,223.058304 
	C2305.073975,223.421463 2265.766113,223.811737 2226.458252,223.862244 
	C2204.149658,223.890900 2181.839600,223.293640 2159.531250,222.924637 
	C2142.221436,222.638336 2124.911377,222.348572 2107.604980,221.917084 
	C2083.985107,221.328232 2060.366699,220.662750 2036.751343,219.917374 
	C2018.797607,219.350662 2000.847290,218.658691 1982.899170,217.931412 
	C1959.472046,216.982086 1936.046753,215.981766 1912.623901,214.930740 
	C1891.530151,213.984192 1870.438354,212.989777 1849.350342,211.923126 
	C1831.089478,210.999496 1812.832764,209.987045 1794.578613,208.937454 
	C1772.012207,207.639923 1749.447388,206.310806 1726.887329,204.907043 
	C1706.653320,203.648026 1686.423340,202.319916 1666.197754,200.930267 
	C1642.658813,199.312912 1619.123657,197.636414 1595.592407,195.909470 
	C1573.720825,194.304321 1551.854370,192.627792 1529.989746,190.930359 
	C1504.481445,188.950073 1478.973389,186.963531 1453.473022,184.885773 
	C1429.962036,182.970139 1406.452759,181.024277 1382.958252,178.918625 
	C1358.970459,176.768738 1335.007568,174.344162 1311.022583,172.161819 
	C1294.477661,170.656418 1277.900879,169.497345 1261.362305,167.930984 
	C1242.678467,166.161453 1224.028320,164.039001 1205.350708,162.199738 
	C1186.834839,160.376389 1168.295532,158.791672 1149.780640,156.959946 
	C1131.434326,155.144928 1113.109741,153.110474 1094.767700,151.250748 
	C1080.223755,149.776108 1065.660156,148.493027 1051.119019,146.992615 
	C1033.441895,145.168640 1015.781738,143.182968 998.109619,141.310608 
	C984.233215,139.840408 970.345032,138.480942 956.470764,136.991043 
	C939.461182,135.164444 922.461060,133.249496 905.456055,131.379669 
	C889.109558,129.582214 872.759766,127.813873 856.415588,125.995476 
	C839.743042,124.140541 823.077881,122.218254 806.405029,120.366051 
	C790.061096,118.550400 773.709106,116.807594 757.365112,114.992714 
	C741.351196,113.214485 725.341125,111.400696 709.332520,109.575020 
	C693.159607,107.730591 676.988281,105.871956 660.820496,103.983360 
	C645.640930,102.210197 630.467407,100.385712 615.290344,98.591225 
	C599.455139,96.718933 583.615356,94.884201 567.783997,92.979889 
	C552.775696,91.174591 537.780029,89.264656 522.770996,87.465706 
	C504.463776,85.271461 486.147125,83.156372 467.837067,80.985634 
	C453.154236,79.244926 438.476196,77.464188 423.794250,75.715996 
	C407.631409,73.791473 391.461395,71.925934 375.303955,69.957306 
	C358.318573,67.887794 341.347931,65.697594 324.364288,63.613438 
	C306.063904,61.367702 287.753143,59.206631 269.452118,56.966255 
	C252.467712,54.887062 235.490250,52.751293 218.509552,50.641731 
	C200.706528,48.430008 182.902344,46.227570 165.100479,44.006577 
	C150.265671,42.155758 135.434311,40.277534 120.599945,38.423153 
	C103.456902,36.280163 86.312881,34.144886 69.168121,32.015659 
	C51.200848,29.784285 33.234623,27.544029 15.262397,25.353125 
	C10.810448,24.810411 6.337066,24.443520 1.436769,23.997902 
	C1.000000,16.334162 1.000000,8.668324 1.000000,1.032484 
	C1334.333374,1.032484 2667.666748,1.032484 4001.000000,1.032484 
	C4001.000000,8.397488 4001.000000,15.730007 4001.000000,23.531265 
z"/>
</svg>