<svg version="1.1" id="Layer_1" xmlns="http://www.w3.org/2000/svg" xmlns:xlink="http://www.w3.org/1999/xlink" x="0px" y="0px"
	 width="100%" viewBox="0 0 4000 290" enable-background="new 0 0 4000 290" xml:space="preserve">
<path fill="#BF1616" opacity="1.000000" stroke="none" 
	d="
M1.000000,111.000000 
	C1.000000,74.336769 1.000000,37.673542 1.000000,1.057303 
	C1334.333374,1.057303 2667.666748,1.057303 4001.000000,1.057303 
	C4001.000000,37.444649 4001.000000,73.774696 4000.554199,110.574219 
	C3974.662354,112.637985 3949.219971,114.290710 3923.769775,115.815315 
	C3854.243164,119.980331 3784.716553,124.144630 3715.184082,128.210083 
	C3631.012207,133.131454 3546.844482,138.137817 3462.655762,142.757767 
	C3391.109619,146.683914 3319.549561,150.391998 3247.972168,153.694016 
	C3154.584961,158.002167 3061.193604,162.336929 2967.769531,165.698654 
	C2867.178223,169.318298 2766.561279,172.485153 2665.929443,174.641876 
	C2555.462646,177.009384 2444.970459,178.602753 2334.481201,179.457413 
	C2133.484619,181.012177 1932.491577,179.716003 1731.524292,175.889938 
	C1627.883667,173.916794 1524.255981,171.233032 1420.626831,168.693741 
	C1374.644897,167.567001 1328.669067,166.139862 1282.698608,164.605804 
	C1210.246582,162.188065 1137.799072,159.627945 1065.354126,157.008560 
	C1009.563782,154.991379 953.776611,152.874054 897.994141,150.650040 
	C828.225220,147.868423 758.461060,144.966141 688.697571,142.050751 
	C638.914673,139.970322 589.133911,137.835480 539.356445,135.628433 
	C483.919128,133.170456 428.487366,130.586212 373.051788,128.088287 
	C317.949036,125.605362 262.841827,123.220734 207.741501,120.685402 
	C138.825027,117.514351 69.913605,114.233467 1.000000,111.000000 
z"/>
<path fill="#1D1D1D" opacity="1.000000" stroke="none" 
	d="
M1.000000,111.468658 
	C69.913605,114.233467 138.825027,117.514351 207.741501,120.685402 
	C262.841827,123.220734 317.949036,125.605362 373.051788,128.088287 
	C428.487366,130.586212 483.919128,133.170456 539.356445,135.628433 
	C589.133911,137.835480 638.914673,139.970322 688.697571,142.050751 
	C758.461060,144.966141 828.225220,147.868423 897.994141,150.650040 
	C953.776611,152.874054 1009.563782,154.991379 1065.354126,157.008560 
	C1137.799072,159.627945 1210.246582,162.188065 1282.698608,164.605804 
	C1328.669067,166.139862 1374.644897,167.567001 1420.626831,168.693741 
	C1524.255981,171.233032 1627.883667,173.916794 1731.524292,175.889938 
	C1932.491577,179.716003 2133.484619,181.012177 2334.481201,179.457413 
	C2444.970459,178.602753 2555.462646,177.009384 2665.929443,174.641876 
	C2766.561279,172.485153 2867.178223,169.318298 2967.769531,165.698654 
	C3061.193604,162.336929 3154.584961,158.002167 3247.972168,153.694016 
	C3319.549561,150.391998 3391.109619,146.683914 3462.655762,142.757767 
	C3546.844482,138.137817 3631.012207,133.131454 3715.184082,128.210083 
	C3784.716553,124.144630 3854.243164,119.980331 3923.769775,115.815315 
	C3949.219971,114.290710 3974.662354,112.637985 4000.554199,111.021851 
	C4001.000000,170.993988 4001.000000,230.987976 4001.000000,290.959564 
	C2667.666748,290.959564 1334.333374,290.959564 1.000000,290.959564 
	C1.000000,231.258530 1.000000,171.597916 1.000000,111.468658 
z"/>
</svg>